<svg id="Layer_1" data-name="Layer 1" xmlns="http://www.w3.org/2000/svg" xmlns:xlink="http://www.w3.org/1999/xlink" viewBox="0 0 460.8 460.8"><defs><style>.cls-1{fill:url(#linear-gradient);}.cls-2{fill:url(#linear-gradient-2);}.cls-3{fill:url(#linear-gradient-3);}</style><linearGradient id="linear-gradient" x1="165.6" y1="270" x2="626.4" y2="270" gradientUnits="userSpaceOnUse"><stop offset="0" stop-color="#fff"/><stop offset="1" stop-color="#fff"/><stop offset="1"/></linearGradient><linearGradient id="linear-gradient-2" x1="277.69" y1="270" x2="514.31" y2="270" xlink:href="#linear-gradient"/><linearGradient id="linear-gradient-3" x1="491.34" y1="147.01" x2="546.63" y2="147.01" xlink:href="#linear-gradient"/></defs><path class="cls-1" d="M396,39.6c-62.57,0-70.42.27-95,1.39s-41.28,5-55.93,10.71a117.76,117.76,0,0,0-67.38,67.38C172,133.73,168.11,150.48,167,175s-1.39,32.42-1.39,95,.26,70.42,1.39,95,5,41.27,10.71,55.93a117.76,117.76,0,0,0,67.38,67.38c14.65,5.7,31.4,9.59,55.93,10.71s32.42,1.39,95,1.39,70.42-.27,95-1.39,41.27-5,55.93-10.71a117.76,117.76,0,0,0,67.38-67.38c5.7-14.66,9.59-31.4,10.71-55.93s1.39-32.42,1.39-95-.27-70.42-1.39-95-5-41.28-10.71-55.93A117.76,117.76,0,0,0,546.92,51.7C532.26,46,515.52,42.11,491,41S458.57,39.6,396,39.6Zm0,41.51c61.52,0,68.81.24,93.1,1.35,22.46,1,34.66,4.78,42.78,7.93a76.29,76.29,0,0,1,43.73,43.73c3.15,8.11,6.91,20.31,7.93,42.78,1.11,24.29,1.35,31.58,1.35,93.1s-.24,68.81-1.35,93.1c-1,22.46-4.78,34.66-7.93,42.78a76.36,76.36,0,0,1-43.73,43.73c-8.12,3.15-20.32,6.91-42.78,7.93-24.29,1.11-31.58,1.35-93.1,1.35s-68.81-.24-93.1-1.35c-22.47-1-34.67-4.78-42.78-7.93a76.29,76.29,0,0,1-43.73-43.73c-3.16-8.12-6.91-20.32-7.93-42.78-1.11-24.29-1.35-31.58-1.35-93.1s.24-68.81,1.35-93.1c1-22.47,4.77-34.67,7.93-42.78a76.21,76.21,0,0,1,43.73-43.73c8.11-3.15,20.31-6.91,42.78-7.93C327.19,81.35,334.48,81.11,396,81.11Z" transform="translate(-165.6 -39.6)"/><path class="cls-2" d="M396,346.8A76.8,76.8,0,1,1,472.8,270,76.8,76.8,0,0,1,396,346.8Zm0-195.11A118.31,118.31,0,1,0,514.31,270,118.31,118.31,0,0,0,396,151.69Z" transform="translate(-165.6 -39.6)"/><path class="cls-3" d="M546.63,147A27.65,27.65,0,1,1,519,119.36,27.64,27.64,0,0,1,546.63,147Z" transform="translate(-165.6 -39.6)"/></svg>