<svg id="Layer_1" data-name="Layer 1" xmlns="http://www.w3.org/2000/svg" xmlns:xlink="http://www.w3.org/1999/xlink" viewBox="0 0 1691 1407"><defs><style>.cls-1{fill:url(#linear-gradient);}</style><linearGradient id="linear-gradient" y1="703.5" x2="1691" y2="703.5" gradientUnits="userSpaceOnUse"><stop offset="0" stop-color="#fff"/><stop offset="1" stop-color="#f6f6f6"/><stop offset="1" stop-color="#2a2627"/><stop offset="1"/></linearGradient></defs><g id="packet"><path class="cls-1" d="M1691,165.18A165.18,165.18,0,0,0,1525.82,0H165.18A165.18,165.18,0,0,0,0,165.18V1241.82A165.18,165.18,0,0,0,165.18,1407H1525.82A165.18,165.18,0,0,0,1691,1241.82ZM166.06,132H1527.12A32.7,32.7,0,0,1,1560,164.75v1.43L869.92,856.34a33,33,0,0,1-46.68,0L133,166.09v-1.34A32.85,32.85,0,0,1,166.06,132ZM1527.12,1275H166.06A33.32,33.32,0,0,1,133,1241.7V353L729.83,949.78a165.1,165.1,0,0,0,233.52,0L1560,353.05V1241.7C1560,1259.92,1545.33,1275,1527.12,1275Z"/></g></svg>